<svg width="16" height="16" viewBox="0 0 16 16" fill="none" xmlns="http://www.w3.org/2000/svg">
<path d="M3.80005 7.99999C3.80005 9.1139 4.24255 10.1822 5.0302 10.9698C5.81785 11.7575 6.88614 12.2 8.00005 12.2C9.11396 12.2 10.1822 11.7575 10.9699 10.9698C11.7576 10.1822 12.2 9.1139 12.2 7.99999C12.2 6.88608 11.7576 5.81779 10.9699 5.03014C10.1822 4.24249 9.11396 3.79999 8.00005 3.79999C6.88614 3.79999 5.81785 4.24249 5.0302 5.03014C4.24255 5.81779 3.80005 6.88608 3.80005 7.99999V7.99999Z" stroke="white" stroke-linecap="round" stroke-linejoin="round"/>
<path d="M8 1.93333V1" stroke="white" stroke-linecap="round" stroke-linejoin="round"/>
<path d="M12.2897 3.71041L12.9499 3.05023" stroke="white" stroke-linecap="round" stroke-linejoin="round"/>
<path d="M14.0667 8H15" stroke="white" stroke-linecap="round" stroke-linejoin="round"/>
<path d="M12.2897 12.2896L12.9499 12.9498" stroke="white" stroke-linecap="round" stroke-linejoin="round"/>
<path d="M8 14.0667V15" stroke="white" stroke-linecap="round" stroke-linejoin="round"/>
<path d="M3.71047 12.2896L3.05029 12.9498" stroke="white" stroke-linecap="round" stroke-linejoin="round"/>
<path d="M1.93333 8H1" stroke="white" stroke-linecap="round" stroke-linejoin="round"/>
<path d="M3.71047 3.71041L3.05029 3.05023" stroke="white" stroke-linecap="round" stroke-linejoin="round"/>
</svg>
